<?xml version="1.0" standalone="no"?><!DOCTYPE svg PUBLIC "-//W3C//DTD SVG 1.1//EN" "http://www.w3.org/Graphics/SVG/1.1/DTD/svg11.dtd"><svg t="1767588055282" class="icon" viewBox="0 0 1024 1024" version="1.1" xmlns="http://www.w3.org/2000/svg" p-id="3290" xmlns:xlink="http://www.w3.org/1999/xlink" width="128" height="128"><path d="M928.760301 1024H95.239699A95.239699 95.239699 0 0 1 0 928.760301V95.239699A95.239699 95.239699 0 0 1 95.239699 0h833.520602A95.239699 95.239699 0 0 1 1024 95.239699v833.520602A95.239699 95.239699 0 0 1 928.760301 1024zM440.140351 493.881103l171.55208-87.822757a15.937444 15.937444 0 0 1 16.810025 1.411529C700.246617 461.274787 764.79198 412.705363 764.79198 412.705363c77.467268-56.089023 41.229474-137.585564 41.229474-137.585564-40.639198-91.313083-129.97614-69.909173-139.869675-67.201604a16.681704 16.681704 0 0 0-1.629674 0.538948c-72.693734 28.076591-79.623058 91.749373-79.558897 115.950677a16.0401 16.0401 0 0 1-8.661654 14.359097L409.343358 424.741855a16.129925 16.129925 0 0 1-17.759599-1.950477c-53.894737-45.245915-114.000201-20.531328-114.0002-20.531328-75.927419 27.640301-75.927419 103.208421-75.927419 103.208421 0 89.824561 77.672581 112.716992 77.672582 112.716993 56.62797 16.476391 95.047218-7.083308 110.35589-19.466266a16.014436 16.014436 0 0 1 17.233483-1.886316L576.160401 681.383459a16.117093 16.117093 0 0 1 8.854135 14.667067c-0.859749 76.209724 56.114687 104.106667 56.114687 104.106667C740.411028 850.766917 796.525714 762.995489 796.525714 762.995489c52.73985-85.12802-19.312281-146.81183-27.383659-153.317695-0.436291-0.346466-0.885414-0.6801-1.283208-0.98807-66.303358-43.500752-120.621554-11.317895-139.767017 3.400502a16.001604 16.001604 0 0 1-16.861354 1.629674l-170.923308-84.897043a15.988772 15.988772 0 0 1-8.8798-14.654235v-5.620452a15.963108 15.963108 0 0 1 8.712983-14.667067z" p-id="3291" fill="#707070"></path></svg>